<mxfile host="app.diagrams.net" modified="2021-09-09T04:26:06.312Z" agent="5.0 (Windows NT 10.0; Win64; x64) AppleWebKit/537.36 (KHTML, like Gecko) Chrome/93.0.4577.63 Safari/537.36" etag="N3WnhFZ_RxNo1nNd1yPG" version="15.0.3" type="github">
  <diagram id="dpaBJEV8WcFuHZeoIN53" name="Page-1">
    <mxGraphModel dx="1108" dy="450" grid="1" gridSize="10" guides="1" tooltips="1" connect="1" arrows="1" fold="1" page="1" pageScale="1" pageWidth="826" pageHeight="1169" math="0" shadow="0">
      <root>
        <mxCell id="0" />
        <mxCell id="1" parent="0" />
        <mxCell id="x2UV0zoMHvqlijKs1Xsh-7" value="" style="rounded=0;whiteSpace=wrap;html=1;" parent="1" vertex="1">
          <mxGeometry x="100" y="50" width="950" height="650" as="geometry" />
        </mxCell>
        <mxCell id="x2UV0zoMHvqlijKs1Xsh-24" value="" style="rounded=1;whiteSpace=wrap;html=1;arcSize=2;" parent="1" vertex="1">
          <mxGeometry x="413" y="140" width="607" height="210" as="geometry" />
        </mxCell>
        <mxCell id="x2UV0zoMHvqlijKs1Xsh-23" value="" style="rounded=1;whiteSpace=wrap;html=1;arcSize=4;" parent="1" vertex="1">
          <mxGeometry x="130" y="140" width="260" height="150" as="geometry" />
        </mxCell>
        <mxCell id="x2UV0zoMHvqlijKs1Xsh-8" value="Escoja una de las siguientes opciones:" style="text;html=1;strokeColor=none;fillColor=none;align=center;verticalAlign=middle;whiteSpace=wrap;rounded=0;" parent="1" vertex="1">
          <mxGeometry x="140" y="160" width="230" height="20" as="geometry" />
        </mxCell>
        <mxCell id="x2UV0zoMHvqlijKs1Xsh-9" value="" style="ellipse;whiteSpace=wrap;html=1;aspect=fixed;" parent="1" vertex="1">
          <mxGeometry x="160" y="190" width="20" height="20" as="geometry" />
        </mxCell>
        <mxCell id="x2UV0zoMHvqlijKs1Xsh-10" value="Consultar películas" style="text;html=1;strokeColor=none;fillColor=none;align=left;verticalAlign=middle;whiteSpace=wrap;rounded=0;" parent="1" vertex="1">
          <mxGeometry x="200" y="190" width="130" height="20" as="geometry" />
        </mxCell>
        <mxCell id="x2UV0zoMHvqlijKs1Xsh-11" value="" style="ellipse;whiteSpace=wrap;html=1;aspect=fixed;" parent="1" vertex="1">
          <mxGeometry x="160" y="220" width="20" height="20" as="geometry" />
        </mxCell>
        <mxCell id="x2UV0zoMHvqlijKs1Xsh-12" value="Agregar película" style="text;html=1;strokeColor=none;fillColor=none;align=left;verticalAlign=middle;whiteSpace=wrap;rounded=0;" parent="1" vertex="1">
          <mxGeometry x="200" y="220" width="130" height="20" as="geometry" />
        </mxCell>
        <mxCell id="x2UV0zoMHvqlijKs1Xsh-13" value="" style="ellipse;whiteSpace=wrap;html=1;aspect=fixed;" parent="1" vertex="1">
          <mxGeometry x="160" y="251" width="20" height="20" as="geometry" />
        </mxCell>
        <mxCell id="x2UV0zoMHvqlijKs1Xsh-14" value="Eliminar película" style="text;html=1;strokeColor=none;fillColor=none;align=left;verticalAlign=middle;whiteSpace=wrap;rounded=0;" parent="1" vertex="1">
          <mxGeometry x="200" y="251" width="130" height="20" as="geometry" />
        </mxCell>
        <mxCell id="x2UV0zoMHvqlijKs1Xsh-15" value="ID Película:" style="text;html=1;strokeColor=none;fillColor=none;align=left;verticalAlign=middle;whiteSpace=wrap;rounded=0;" parent="1" vertex="1">
          <mxGeometry x="440" y="190" width="130" height="20" as="geometry" />
        </mxCell>
        <mxCell id="x2UV0zoMHvqlijKs1Xsh-17" value="Nombre Película:" style="text;html=1;strokeColor=none;fillColor=none;align=left;verticalAlign=middle;whiteSpace=wrap;rounded=0;" parent="1" vertex="1">
          <mxGeometry x="440" y="220" width="130" height="20" as="geometry" />
        </mxCell>
        <mxCell id="x2UV0zoMHvqlijKs1Xsh-18" value="Resumen:" style="text;html=1;strokeColor=none;fillColor=none;align=left;verticalAlign=middle;whiteSpace=wrap;rounded=0;" parent="1" vertex="1">
          <mxGeometry x="440" y="251" width="130" height="20" as="geometry" />
        </mxCell>
        <mxCell id="x2UV0zoMHvqlijKs1Xsh-19" value="Director:" style="text;html=1;strokeColor=none;fillColor=none;align=left;verticalAlign=middle;whiteSpace=wrap;rounded=0;" parent="1" vertex="1">
          <mxGeometry x="732" y="193" width="130" height="20" as="geometry" />
        </mxCell>
        <mxCell id="x2UV0zoMHvqlijKs1Xsh-20" value="Nombre:" style="text;html=1;strokeColor=none;fillColor=none;align=left;verticalAlign=middle;whiteSpace=wrap;rounded=0;" parent="1" vertex="1">
          <mxGeometry x="802" y="193" width="130" height="20" as="geometry" />
        </mxCell>
        <mxCell id="x2UV0zoMHvqlijKs1Xsh-21" value="Apellido:" style="text;html=1;strokeColor=none;fillColor=none;align=left;verticalAlign=middle;whiteSpace=wrap;rounded=0;" parent="1" vertex="1">
          <mxGeometry x="802" y="223" width="130" height="20" as="geometry" />
        </mxCell>
        <mxCell id="x2UV0zoMHvqlijKs1Xsh-22" value="Año película:" style="text;html=1;strokeColor=none;fillColor=none;align=left;verticalAlign=middle;whiteSpace=wrap;rounded=0;" parent="1" vertex="1">
          <mxGeometry x="732" y="253" width="130" height="20" as="geometry" />
        </mxCell>
        <mxCell id="x2UV0zoMHvqlijKs1Xsh-25" value="Ingrese los siguientes datos:" style="text;html=1;strokeColor=none;fillColor=none;align=left;verticalAlign=middle;whiteSpace=wrap;rounded=0;" parent="1" vertex="1">
          <mxGeometry x="440" y="160" width="230" height="20" as="geometry" />
        </mxCell>
        <mxCell id="x2UV0zoMHvqlijKs1Xsh-26" value="" style="rounded=0;whiteSpace=wrap;html=1;" parent="1" vertex="1">
          <mxGeometry x="580" y="190" width="120" height="20" as="geometry" />
        </mxCell>
        <mxCell id="x2UV0zoMHvqlijKs1Xsh-27" value="" style="rounded=0;whiteSpace=wrap;html=1;" parent="1" vertex="1">
          <mxGeometry x="580" y="220" width="120" height="20" as="geometry" />
        </mxCell>
        <mxCell id="x2UV0zoMHvqlijKs1Xsh-28" value="" style="rounded=0;whiteSpace=wrap;html=1;" parent="1" vertex="1">
          <mxGeometry x="580" y="251" width="120" height="69" as="geometry" />
        </mxCell>
        <mxCell id="x2UV0zoMHvqlijKs1Xsh-29" value="" style="rounded=0;whiteSpace=wrap;html=1;" parent="1" vertex="1">
          <mxGeometry x="872" y="193" width="120" height="20" as="geometry" />
        </mxCell>
        <mxCell id="x2UV0zoMHvqlijKs1Xsh-30" value="" style="rounded=0;whiteSpace=wrap;html=1;" parent="1" vertex="1">
          <mxGeometry x="872" y="223" width="120" height="20" as="geometry" />
        </mxCell>
        <mxCell id="x2UV0zoMHvqlijKs1Xsh-31" value="" style="rounded=0;whiteSpace=wrap;html=1;" parent="1" vertex="1">
          <mxGeometry x="872" y="253" width="120" height="20" as="geometry" />
        </mxCell>
        <mxCell id="x2UV0zoMHvqlijKs1Xsh-32" value="AREA VISUALIZACIÓN TABLA" style="rounded=1;whiteSpace=wrap;html=1;arcSize=2;" parent="1" vertex="1">
          <mxGeometry x="130" y="380" width="890" height="250" as="geometry" />
        </mxCell>
        <mxCell id="x2UV0zoMHvqlijKs1Xsh-33" value="Tienda de películas" style="rounded=0;whiteSpace=wrap;html=1;" parent="1" vertex="1">
          <mxGeometry x="100" y="50" width="950" height="30" as="geometry" />
        </mxCell>
        <mxCell id="x2UV0zoMHvqlijKs1Xsh-34" value="&lt;b&gt;&lt;font style=&quot;font-size: 14px&quot;&gt;X&lt;/font&gt;&lt;/b&gt;" style="rounded=0;whiteSpace=wrap;html=1;" parent="1" vertex="1">
          <mxGeometry x="1020" y="50" width="30" height="30" as="geometry" />
        </mxCell>
        <mxCell id="x2UV0zoMHvqlijKs1Xsh-35" value="" style="rounded=0;whiteSpace=wrap;html=1;" parent="1" vertex="1">
          <mxGeometry x="990" y="50" width="30" height="30" as="geometry" />
        </mxCell>
        <mxCell id="x2UV0zoMHvqlijKs1Xsh-36" value="" style="rounded=0;whiteSpace=wrap;html=1;" parent="1" vertex="1">
          <mxGeometry x="960" y="50" width="30" height="30" as="geometry" />
        </mxCell>
        <mxCell id="x2UV0zoMHvqlijKs1Xsh-37" value="" style="rounded=0;whiteSpace=wrap;html=1;" parent="1" vertex="1">
          <mxGeometry x="1002" y="59" width="10" height="10" as="geometry" />
        </mxCell>
        <mxCell id="x2UV0zoMHvqlijKs1Xsh-38" value="" style="rounded=0;whiteSpace=wrap;html=1;" parent="1" vertex="1">
          <mxGeometry x="999" y="62" width="10" height="10" as="geometry" />
        </mxCell>
        <mxCell id="x2UV0zoMHvqlijKs1Xsh-40" value="" style="shape=link;html=1;width=-1;" parent="1" edge="1">
          <mxGeometry width="100" relative="1" as="geometry">
            <mxPoint x="970" y="64.83" as="sourcePoint" />
            <mxPoint x="980" y="64.83" as="targetPoint" />
          </mxGeometry>
        </mxCell>
        <mxCell id="x2UV0zoMHvqlijKs1Xsh-41" value="EJECUTAR" style="rounded=1;whiteSpace=wrap;html=1;" parent="1" vertex="1">
          <mxGeometry x="195" y="320" width="120" height="30" as="geometry" />
        </mxCell>
        <mxCell id="x2UV0zoMHvqlijKs1Xsh-42" value="SALIR" style="rounded=1;whiteSpace=wrap;html=1;" parent="1" vertex="1">
          <mxGeometry x="902" y="650" width="120" height="30" as="geometry" />
        </mxCell>
        <mxCell id="x2UV0zoMHvqlijKs1Xsh-43" value="BORRAR" style="rounded=1;whiteSpace=wrap;html=1;" parent="1" vertex="1">
          <mxGeometry x="752" y="650" width="120" height="30" as="geometry" />
        </mxCell>
        <mxCell id="HecJgrBNXNTlFVpaogYg-1" value="&lt;b&gt;&lt;font style=&quot;font-size: 18px&quot;&gt;Título ventana&lt;/font&gt;&lt;/b&gt;" style="text;html=1;strokeColor=none;fillColor=none;align=center;verticalAlign=middle;whiteSpace=wrap;rounded=0;" parent="1" vertex="1">
          <mxGeometry x="320" y="100" width="510" height="20" as="geometry" />
        </mxCell>
        <mxCell id="HecJgrBNXNTlFVpaogYg-2" value="" style="ellipse;whiteSpace=wrap;html=1;aspect=fixed;fillColor=#A1A1A1;strokeColor=#A1A1A1;" parent="1" vertex="1">
          <mxGeometry x="165" y="225" width="10" height="10" as="geometry" />
        </mxCell>
      </root>
    </mxGraphModel>
  </diagram>
</mxfile>
